<svg width="60" height="60" viewBox="0 0 60 60" fill="none" xmlns="http://www.w3.org/2000/svg">
<path d="M53.0845 40.9749H50.424V23.6964H43.4983V21.0358H58.6392C54.821 8.84488 43.4425 0 29.9975 0C21.2389 0 13.3638 3.7573 7.87509 9.73851V38.2991H14.6382L16.4559 34.2727H19.3755L16.3544 40.9596H5.21452V13.0947C1.92942 17.9081 0 23.7268 0 30.0025C0 46.5702 13.4298 60 29.9975 60C46.5651 60 59.9949 46.5702 59.9949 30.0025C59.9949 27.8396 59.7613 25.7324 59.3247 23.6964H53.0794V40.9749H53.0845ZM40.8784 21.0358V23.6964H27.1135L26.1437 21.0358H40.8784ZM11.8558 32.328L13.2826 29.6674H22.2341L23.2039 32.328H11.8558ZM28.459 40.9749L25.6613 33.3283L23.9604 28.6723L23.0465 26.1691L22.3458 27.7228H19.4262L22.4473 21.0358H24.001L26.7936 28.6723L28.4945 33.3283L31.2922 40.9749H28.459ZM40.8784 40.9647H33.3536L32.3838 38.2991H40.8784V40.9647ZM41.0104 32.328H30.2209L29.2511 29.6674H41.0104V32.328Z" fill="#009EE0"/>
</svg>
