<?xml version="1.0" encoding="UTF-8" standalone="no"?>
<svg
   xmlns:dc="http://purl.org/dc/elements/1.1/"
   xmlns:cc="http://creativecommons.org/ns#"
   xmlns:rdf="http://www.w3.org/1999/02/22-rdf-syntax-ns#"
   xmlns:svg="http://www.w3.org/2000/svg"
   xmlns="http://www.w3.org/2000/svg"
   xmlns:sodipodi="http://sodipodi.sourceforge.net/DTD/sodipodi-0.dtd"
   xmlns:inkscape="http://www.inkscape.org/namespaces/inkscape"
   id="Calque_1"
   data-name="Calque 1"
   viewBox="0 0 2009.25 610"
   version="1.1"
   sodipodi:docname="logoTellae_v3.svg"
   width="2009.25"
   height="610"
   inkscape:version="0.92.3 (2405546, 2018-03-11)"
   inkscape:export-filename="/home/vincent/tellae/Marketing/website/images/logoTellae_v3.svg.png"
   inkscape:export-xdpi="47.842625"
   inkscape:export-ydpi="47.842625">
  <metadata
     id="metadata33">
    <rdf:RDF>
      <cc:Work
         rdf:about="">
        <dc:format>image/svg+xml</dc:format>
        <dc:type
           rdf:resource="http://purl.org/dc/dcmitype/StillImage" />
        <dc:title />
      </cc:Work>
    </rdf:RDF>
  </metadata>
  <sodipodi:namedview
     pagecolor="#ffffff"
     bordercolor="#666666"
     borderopacity="1"
     objecttolerance="10"
     gridtolerance="10"
     guidetolerance="10"
     inkscape:pageopacity="0"
     inkscape:pageshadow="2"
     inkscape:window-width="1863"
     inkscape:window-height="1025"
     id="namedview31"
     showgrid="false"
     fit-margin-top="0"
     fit-margin-left="0"
     fit-margin-right="0"
     fit-margin-bottom="0"
     inkscape:zoom="0.11838611"
     inkscape:cx="-2353.2734"
     inkscape:cy="107.58639"
     inkscape:window-x="1977"
     inkscape:window-y="27"
     inkscape:window-maximized="1"
     inkscape:current-layer="Calque_1" />
  <defs
     id="defs4">
    <style
       id="style2">
      .cls-1 {
        fill: #fff;
      }

      .cls-2, .cls-8 {
        fill: #3d6582;
      }

      .cls-2, .cls-3, .cls-4, .cls-5 {
        stroke: #fff;
      }

      .cls-2, .cls-3, .cls-4, .cls-5, .cls-6, .cls-7 {
        stroke-miterlimit: 10;
      }

      .cls-2, .cls-3, .cls-4 {
        stroke-width: 10px;
      }

      .cls-3, .cls-5 {
        fill: #62a3bc;
      }

      .cls-4 {
        fill: #85c287;
      }

      .cls-5 {
        stroke-width: 5px;
      }

      .cls-6, .cls-7 {
        fill: none;
      }

      .cls-6 {
        stroke: #fdfffc;
        stroke-width: 12px;
      }

      .cls-7 {
        stroke: #3d6582;
        stroke-width: 20px;
      }
    </style>
  </defs>
  <circle
     class="cls-1"
     cx="305"
     cy="305"
     r="289.17001"
     id="circle6"
     style="fill:#ffffff" />
  <path
     class="cls-2"
     d="m 580.7,297.81 a 276.7,276.7 0 0 0 -70.44,-177.74 99.42,99.42 0 0 0 -10.37,-1 c -105.57,-1.26 -158.42,94.66 -105.1,231.63 16.64,3.93 33.25,11 49.29,17.79 87.75,33.36 35,86.85 -4.95,133.63 -4.69,5.48 -10.65,12.28 -5.28,19.28 1.76,2.35 9.31,19 10.83,21.82 C 530,493.69 584.11,396.46 580.7,297.81 Z m -125.91,-45.1 c -26,0.39 -26,-40.38 0,-40 25.95,-0.38 25.95,40.39 0,40 z"
     id="path8"
     inkscape:connector-curvature="0"
     style="fill:#3d6582;stroke:#ffffff;stroke-width:10px;stroke-miterlimit:10" />
  <path
     class="cls-3"
     d="M 510.26,120.07 C 397.85,111 339.9,208.45 394.8,350.79 262.94,378.57 198.59,162.66 285,81.66 322.75,53.87 372.91,51.05 418.14,54 454,65.81 484.53,93 510.26,120.07 Z"
     id="path10"
     inkscape:connector-curvature="0"
     style="fill:#62a3bc;stroke:#ffffff;stroke-width:10px;stroke-miterlimit:10" />
  <path
     class="cls-4"
     d="m 444.68,543.23 a 276,276 0 0 1 -142.33,38.46 c 0,-0.32 0,-2.09 0,-5.18 0,-17.56 0.45,-35.94 1.27,-54.07 4.17,-57.5 5.36,-118.7 31.63,-171.2 0.7,-1.19 1.44,-2.37 2.21,-3.51 a 89.22,89.22 0 0 0 26.84,5.53 c 10.33,1.17 20.35,-2.13 30.53,-2.47 12.17,56.09 13.67,118.14 39.05,170.62 3.4,7.36 7,14.68 10.8,21.82 z"
     id="path12"
     inkscape:connector-curvature="0"
     style="fill:#85c287;stroke:#ffffff;stroke-width:10px;stroke-miterlimit:10" />
  <path
     class="cls-5"
     d="m 435.47,419.3 a 132.84,132.84 0 0 1 -0.68,16.41 c -2,13 -14.27,52.34 -14.36,52.6 l -0.33,-1 c 0,-0.11 -0.07,-0.23 -0.11,-0.35 -0.24,-0.76 -0.47,-1.51 -0.7,-2.26 0,-0.12 -0.07,-0.24 -0.1,-0.35 -0.22,-0.75 -0.44,-1.5 -0.64,-2.23 l -0.09,-0.33 c -0.2,-0.74 -0.4,-1.48 -0.58,-2.2 a 2.5,2.5 0 0 0 -0.07,-0.26 c -0.18,-0.75 -0.36,-1.48 -0.52,-2.21 v -0.16 c -0.17,-0.75 -0.33,-1.5 -0.47,-2.23 q -0.12,-0.6 -0.24,-1.26 c 0,-0.14 -0.06,-0.3 -0.08,-0.44 -0.06,-0.31 -0.12,-0.61 -0.18,-0.94 l -0.06,-0.31 c -0.07,-0.36 -0.14,-0.73 -0.21,-1.12 l -0.15,-0.79 c -0.05,-0.25 -0.09,-0.5 -0.14,-0.76 -0.05,-0.26 -0.09,-0.49 -0.14,-0.74 -0.05,-0.25 -0.11,-0.6 -0.17,-0.91 -0.06,-0.31 -0.09,-0.49 -0.13,-0.72 l -0.18,-1 c -0.05,-0.28 -0.11,-0.57 -0.16,-0.85 -0.05,-0.28 -0.12,-0.63 -0.17,-0.95 l -0.15,-0.78 c -0.07,-0.38 -0.13,-0.75 -0.2,-1.13 -0.07,-0.38 -0.11,-0.59 -0.16,-0.88 -0.05,-0.29 -0.13,-0.67 -0.19,-1 -0.06,-0.33 -0.11,-0.62 -0.17,-0.93 -0.06,-0.31 -0.14,-0.8 -0.22,-1.21 l -0.12,-0.68 c -0.08,-0.42 -0.15,-0.84 -0.23,-1.27 -0.08,-0.43 -0.15,-0.8 -0.22,-1.2 l -0.18,-1 c -0.07,-0.4 -0.15,-0.82 -0.22,-1.23 -0.07,-0.41 -0.11,-0.59 -0.16,-0.89 -0.05,-0.3 -0.15,-0.82 -0.23,-1.24 -0.08,-0.42 -0.14,-0.78 -0.21,-1.19 0,-0.23 -0.09,-0.48 -0.13,-0.72 -0.09,-0.51 -0.18,-1 -0.28,-1.56 -0.1,-0.56 -0.15,-0.86 -0.23,-1.29 -0.08,-0.43 -0.11,-0.6 -0.16,-0.9 -0.1,-0.54 -0.19,-1.08 -0.29,-1.62 0,-0.27 -0.1,-0.53 -0.14,-0.8 l -0.24,-1.32 c -0.08,-0.44 -0.16,-0.88 -0.23,-1.32 l -0.18,-1 -0.24,-1.37 c -0.09,-0.47 -0.17,-0.94 -0.26,-1.41 -0.09,-0.47 -0.12,-0.71 -0.19,-1.06 -0.07,-0.35 -0.14,-0.84 -0.22,-1.26 l -0.27,-1.54 -0.12,-0.64 c -0.12,-0.67 -0.23,-1.35 -0.35,-2 0,-0.15 -0.06,-0.29 -0.08,-0.44 -0.13,-0.7 -0.25,-1.41 -0.38,-2.12 l -0.12,-0.72 -0.3,-1.65 c -0.06,-0.38 -0.13,-0.76 -0.2,-1.13 -0.07,-0.37 -0.17,-1 -0.26,-1.47 l -0.21,-1.23 c -0.11,-0.58 -0.21,-1.15 -0.31,-1.72 0,-0.15 -0.05,-0.3 -0.08,-0.46 -0.1,-0.59 -0.21,-1.19 -0.31,-1.79 -0.1,-0.6 -0.17,-1 -0.26,-1.45 l -0.24,-1.36 c 0,-0.25 -0.09,-0.51 -0.13,-0.76 -0.13,-0.72 -0.26,-1.44 -0.38,-2.16 l -0.06,-0.29 c -0.27,-1.56 -0.55,-3.12 -0.82,-4.67 -0.07,-0.42 -0.14,-0.84 -0.22,-1.26 -0.08,-0.42 -0.1,-0.6 -0.16,-0.9 -0.1,-0.56 -0.19,-1.12 -0.29,-1.68 -0.06,-0.36 -0.13,-0.71 -0.19,-1.07 l -0.21,-1.21 c -0.25,-1.44 -0.5,-2.86 -0.75,-4.28 l -0.18,-1 c -0.06,-0.32 -0.11,-0.64 -0.17,-1 l -0.21,-1.22 c -0.56,-3.18 -1.1,-6.28 -1.62,-9.26 v -0.15 l -0.24,-1.36 c -0.08,-0.49 -0.17,-1 -0.25,-1.46 -0.21,-1.2 -0.42,-2.38 -0.62,-3.54 0,-0.13 -0.05,-0.26 -0.07,-0.39 -0.5,-2.83 -1,-5.5 -1.39,-8 a 0.13,0.13 0 0 1 0,-0.06 c -1.08,-6.21 -1.94,-11.14 -2.47,-14.17 a 0.36,0.36 0 0 0 0,-0.1 l -0.55,-3.17 a 22.86,22.86 0 0 1 2.86,0.39 l 0.23,0.06 c 0.39,0.08 0.79,0.17 1.18,0.28 0.39,0.11 0.95,0.27 1.42,0.43 l 1.18,0.41 1.06,0.36 4.37,1.5 1.52,0.52 c 3.18,1.1 6.73,2.34 10.52,3.72 l 3.5,1.29 1.8,0.68 2.74,1 2.79,1.09 c 1.24,0.49 2.5,1 3.77,1.51 -0.09,0.03 1.64,33.29 1.64,55.26 z"
     id="path14"
     inkscape:connector-curvature="0"
     style="fill:#62a3bc;stroke:#ffffff;stroke-width:5px;stroke-miterlimit:10" />
  <path
     class="cls-2"
     d="m 416.05,51.42 -0.71,-0.31 q -3,-1.3 -6,-2.55 l -1,-0.42 q -2.88,-1.19 -5.79,-2.29 l -1.16,-0.44 c -1.93,-0.73 -3.87,-1.43 -5.82,-2.12 l -1.14,-0.4 q -3,-1.05 -6.13,-2 l -0.85,-0.28 q -10.69,-3.39 -21.73,-5.92 l -0.46,-0.09 c -2.21,-0.51 -4.43,-1 -6.66,-1.43 l -1.83,-0.35 q -2.67,-0.52 -5.37,-1 L 349,31.4 c -1.63,-0.26 -3.26,-0.52 -4.89,-0.76 l -2.68,-0.37 c -1.55,-0.21 -3.1,-0.41 -4.66,-0.6 l -2.85,-0.32 c -1.53,-0.17 -3.07,-0.32 -4.61,-0.46 -1,-0.09 -1.92,-0.18 -2.89,-0.25 -1.56,-0.13 -3.14,-0.24 -4.71,-0.34 l -2.8,-0.17 c -1.71,-0.1 -3.42,-0.16 -5.13,-0.22 -0.81,0 -1.61,-0.07 -2.42,-0.09 q -3.78,-0.11 -7.58,-0.11 c -2.36,0 -4.7,0 -7,0.09 -0.79,0 -1.58,0.06 -2.37,0.09 -1.55,0.05 -3.1,0.1 -4.64,0.17 l -2.8,0.18 c -1.39,0.08 -2.77,0.15 -4.15,0.26 -1,0.07 -2,0.17 -3,0.26 -1.31,0.11 -2.62,0.21 -3.92,0.34 l -3.06,0.34 c -1.27,0.14 -2.54,0.28 -3.8,0.44 -1,0.13 -2.08,0.28 -3.11,0.42 -1.23,0.17 -2.47,0.33 -3.7,0.52 -1,0.15 -2.09,0.33 -3.14,0.5 -1.05,0.17 -2.41,0.39 -3.61,0.6 l -3.15,0.59 -3.55,0.67 -3.15,0.67 -3.49,0.76 -3.14,0.74 -3.44,0.84 -3.13,0.82 c -1.13,0.3 -2.26,0.6 -3.38,0.92 -1.12,0.32 -2.09,0.6 -3.13,0.9 -1.04,0.3 -2.22,0.65 -3.32,1 l -3.12,1 -3.26,1.06 c -1,0.34 -2.07,0.7 -3.11,1.06 -1.04,0.36 -2.14,0.74 -3.21,1.13 l -3.08,1.13 -3.16,1.21 c -1,0.39 -2,0.8 -3.07,1.21 -1.07,0.41 -2.07,0.84 -3.1,1.27 -1.03,0.43 -2,0.85 -3.05,1.29 -1.05,0.44 -2,0.88 -3,1.33 l -3,1.36 -3,1.4 -3,1.45 c -1,0.47 -2,1 -2.93,1.45 -0.93,0.45 -2,1 -3,1.52 l -2.87,1.52 c -1,0.52 -2,1.06 -3,1.6 -1,0.54 -1.87,1 -2.8,1.56 l -3,1.69 -2.73,1.61 c -1,0.58 -2,1.17 -2.93,1.77 -0.93,0.6 -1.77,1.1 -2.66,1.65 -0.89,0.55 -1.95,1.23 -2.92,1.86 -0.97,0.63 -1.71,1.12 -2.56,1.69 -0.85,0.57 -2,1.29 -2.92,1.94 l -2.48,1.72 c -1,0.68 -2,1.36 -2.91,2 -0.8,0.57 -1.59,1.15 -2.38,1.73 -1,0.71 -2,1.43 -2.92,2.15 -0.76,0.57 -1.51,1.16 -2.26,1.74 -1,0.75 -2,1.5 -2.94,2.27 -0.71,0.56 -1.42,1.14 -2.13,1.71 -1,0.8 -2,1.6 -3,2.41 l -2,1.66 c -1,0.86 -2,1.71 -3,2.59 l -1.71,1.51 c -1.06,1 -2.13,1.89 -3.19,2.85 l -1.2,1.2 c -1.18,1.09 -2.36,2.18 -3.52,3.29 l -0.21,0.21 q -9,8.59 -17.17,18 l -0.45,0.51 c -1.12,1.28 -2.22,2.59 -3.32,3.9 l -0.91,1.08 q -1.52,1.85 -3,3.71 L 87.28,132 c 10.73,8.67 81.88,56.54 105.33,187.45 23.85,133.14 -6.82,215.1 -25.25,226.36 l 0.87,0.5 v 0 q 9.23,5.19 18.86,9.67 l 0.28,0.13 q 5.66,2.63 11.44,5 l 0.56,0.23 q 5.73,2.32 11.58,4.42 l 0.65,0.23 c 2.49,0.88 5,1.72 7.53,2.53 l 0.33,0.11 c 1.32,0.42 2.65,0.84 4,1.24 l 0.46,0.14 q 3.66,1.1 7.36,2.1 l 1,0.27 q 5.81,1.56 11.72,2.85 l 1.34,0.29 q 5.83,1.26 11.77,2.27 l 1.49,0.25 q 3.39,0.56 6.81,1 l 1.28,0.18 3.81,0.48 1.53,0.17 c 2.18,0.25 4.38,0.48 6.58,0.68 l 1.73,0.15 c 1.26,0.11 2.52,0.21 3.79,0.3 l 1.18,0.07 c 2.31,0.15 4.62,0.28 6.94,0.37 l 1.93,0.07 q 4.08,0.15 8.2,0.17 v 0 0 c 0,-0.28 0,-2.08 0,-5.14 v 0 c 0,-1.28 0,-2.78 0,-4.48 V 572 c 0,-1 0,-2.13 0,-3.3 0,-1.56 0,-3.24 0,-5 v -0.07 c 0.05,-4.52 0.15,-9.77 0.29,-15.61 v 0 c 0,-0.58 0,-1.16 0.05,-1.75 v 0 c 0.05,-1.77 0.1,-3.59 0.16,-5.46 v -0.08 c 0.13,-4.36 0.3,-9 0.5,-13.81 a 0.76,0.76 0 0 0 0,-0.15 c 0.06,-1.38 0.12,-2.78 0.18,-4.19 v 0 c 0,-0.67 0.07,-1.35 0.1,-2 a 0.92,0.92 0 0 1 0,-0.16 c 0,-0.68 0.06,-1.37 0.1,-2.07 v -0.08 c 0,-0.71 0.07,-1.42 0.11,-2.13 v -0.07 c 0,-0.71 0.08,-1.43 0.11,-2.15 a 0.13,0.13 0 0 0 0,-0.06 l 0.12,-2.21 v 0 l 0.12,-2.12 a 1.09,1.09 0 0 1 0,-0.18 l 0.12,-2.17 a 0.22,0.22 0 0 0 0,-0.08 c 0,-0.73 0.09,-1.46 0.13,-2.2 a 0.34,0.34 0 0 1 0,-0.1 c 0,-0.72 0.09,-1.45 0.13,-2.18 a 0.66,0.66 0 0 0 0,-0.14 c 0.05,-0.73 0.1,-1.46 0.14,-2.2 a 0.53,0.53 0 0 0 0,-0.13 l 0.15,-2.23 c 0,0 0,-0.07 0,-0.11 l 0.15,-2.15 c 0,-0.08 0,-0.16 0,-0.23 0,-0.74 0.11,-1.47 0.16,-2.21 0,0 0,-0.1 0,-0.14 0.05,-0.74 0.11,-1.48 0.16,-2.21 0,-0.07 0,-0.13 0,-0.19 0.05,-0.73 0.11,-1.47 0.16,-2.21 0,-0.06 0,-0.12 0,-0.18 0.05,-0.72 0.11,-1.43 0.16,-2.14 v -0.3 c 0.06,-0.72 0.11,-1.44 0.17,-2.17 a 1.64,1.64 0 0 0 0,-0.23 l 0.18,-2.14 v -0.3 l 0.18,-2.12 v -0.32 c 0.06,-0.73 0.13,-1.47 0.19,-2.21 0,-0.07 0,-0.14 0,-0.21 0.07,-0.73 0.13,-1.46 0.2,-2.18 v -0.29 c 0.06,-0.71 0.13,-1.42 0.2,-2.14 v -0.32 l 0.21,-2.22 v -0.22 l 0.21,-2.16 c 0,-0.11 0,-0.22 0,-0.33 0.07,-0.73 0.14,-1.46 0.22,-2.18 v -0.27 c 0.07,-0.72 0.15,-1.43 0.22,-2.14 0,-0.12 0,-0.23 0,-0.35 0.08,-0.7 0.15,-1.4 0.23,-2.1 0,-0.13 0,-0.25 0,-0.38 l 0.24,-2.1 c 0,-0.12 0,-0.25 0,-0.37 0.08,-0.7 0.16,-1.41 0.25,-2.11 0,-0.12 0,-0.24 0,-0.36 0.08,-0.71 0.17,-1.43 0.25,-2.14 0,-0.11 0,-0.22 0,-0.33 0.09,-0.71 0.18,-1.42 0.26,-2.12 0,-0.12 0,-0.24 0.05,-0.36 l 0.27,-2.11 c 0,-0.12 0,-0.24 0,-0.35 0.09,-0.67 0.17,-1.34 0.26,-2 0,-0.16 0,-0.32 0.07,-0.48 0.08,-0.65 0.17,-1.3 0.26,-1.95 0,-0.17 0,-0.34 0.07,-0.51 0.08,-0.63 0.17,-1.26 0.26,-1.89 0,-0.19 0.05,-0.39 0.08,-0.58 l 0.27,-1.91 c 0,-0.18 0.05,-0.35 0.07,-0.53 0.09,-0.62 0.19,-1.25 0.28,-1.88 0,-0.19 0.05,-0.38 0.08,-0.57 0.1,-0.63 0.19,-1.26 0.29,-1.88 0,-0.18 0.05,-0.36 0.08,-0.54 0.09,-0.64 0.19,-1.27 0.29,-1.9 0,-0.17 0.06,-0.35 0.08,-0.53 0.1,-0.63 0.2,-1.26 0.31,-1.89 0,-0.17 0,-0.35 0.08,-0.53 l 0.3,-1.81 c 0,-0.2 0.06,-0.4 0.1,-0.6 l 0.3,-1.76 c 0,-0.22 0.07,-0.43 0.1,-0.64 0.11,-0.61 0.21,-1.21 0.32,-1.81 0,-0.19 0.06,-0.37 0.1,-0.56 0.1,-0.6 0.21,-1.19 0.32,-1.78 0,-0.2 0.07,-0.4 0.1,-0.6 l 0.33,-1.76 c 0,-0.2 0.07,-0.39 0.11,-0.59 l 0.33,-1.72 0.12,-0.63 0.33,-1.68 0.12,-0.64 c 0.12,-0.56 0.23,-1.11 0.34,-1.67 0,-0.21 0.09,-0.43 0.13,-0.64 0.11,-0.55 0.23,-1.1 0.34,-1.65 0.05,-0.22 0.09,-0.43 0.14,-0.64 0.12,-0.56 0.23,-1.1 0.35,-1.65 0.05,-0.21 0.09,-0.42 0.14,-0.63 0.11,-0.53 0.23,-1.06 0.35,-1.6 l 0.15,-0.66 c 0.11,-0.51 0.23,-1 0.35,-1.52 0.05,-0.24 0.1,-0.48 0.16,-0.72 l 0.36,-1.51 c 0.05,-0.23 0.11,-0.47 0.16,-0.7 0.12,-0.5 0.24,-1 0.37,-1.5 0.05,-0.23 0.11,-0.46 0.16,-0.69 l 0.36,-1.44 c 0.07,-0.24 0.13,-0.49 0.19,-0.73 l 0.36,-1.39 c 0.06,-0.25 0.13,-0.51 0.2,-0.76 0.12,-0.47 0.24,-0.93 0.37,-1.4 0.06,-0.24 0.13,-0.48 0.19,-0.72 l 0.39,-1.4 0.19,-0.7 c 0.12,-0.44 0.25,-0.88 0.38,-1.32 l 0.21,-0.76 c 0.12,-0.42 0.25,-0.83 0.37,-1.24 l 0.24,-0.81 c 0.12,-0.42 0.25,-0.84 0.38,-1.26 0.08,-0.25 0.15,-0.5 0.23,-0.75 l 0.39,-1.25 0.24,-0.74 0.39,-1.21 c 0.09,-0.25 0.17,-0.5 0.25,-0.75 0.08,-0.25 0.26,-0.76 0.38,-1.15 l 0.27,-0.79 0.39,-1.1 c 0.09,-0.26 0.18,-0.53 0.28,-0.79 0.1,-0.26 0.28,-0.78 0.42,-1.16 0.14,-0.38 0.17,-0.47 0.25,-0.71 L 327,369 l 0.27,-0.73 c 0.13,-0.34 0.27,-0.67 0.4,-1 0.13,-0.33 0.2,-0.54 0.31,-0.8 0.11,-0.26 0.27,-0.67 0.4,-1 0.13,-0.33 0.21,-0.5 0.31,-0.75 l 0.44,-1 c 0.09,-0.23 0.19,-0.46 0.29,-0.69 0.1,-0.23 0.29,-0.68 0.44,-1 l 0.3,-0.69 c 0.13,-0.3 0.27,-0.58 0.4,-0.88 l 0.36,-0.79 c 0.13,-0.27 0.26,-0.53 0.38,-0.8 l 0.39,-0.81 0.42,-0.85 0.36,-0.74 0.44,-0.85 0.36,-0.69 0.42,-0.78 0.39,-0.72 0.4,-0.71 0.42,-0.75 0.37,-0.62 0.47,-0.81 0.4,-0.63 c 0.15,-0.25 0.3,-0.5 0.46,-0.74 l 0.57,-0.89 c 0.1,-0.14 0.2,-0.3 0.29,-0.44 -0.87,-0.33 -1.75,-0.66 -2.63,-1 -80,-35 -106,-151 -76,-230 0.47,-1.23 1,-2.44 1.48,-3.63 0.17,-0.39 0.36,-0.76 0.53,-1.15 0.36,-0.78 0.71,-1.57 1.09,-2.34 0.2,-0.4 0.42,-0.78 0.62,-1.18 0.38,-0.73 0.75,-1.46 1.15,-2.17 0.22,-0.4 0.46,-0.78 0.69,-1.18 0.4,-0.68 0.79,-1.38 1.21,-2 0.25,-0.4 0.51,-0.78 0.77,-1.17 0.41,-0.65 0.83,-1.3 1.26,-1.93 0.26,-0.37 0.53,-0.73 0.79,-1.09 0.45,-0.63 0.9,-1.27 1.37,-1.88 0.26,-0.35 0.54,-0.68 0.81,-1 0.49,-0.61 1,-1.23 1.46,-1.82 0.28,-0.33 0.58,-0.65 0.86,-1 0.51,-0.58 1,-1.17 1.53,-1.74 0.28,-0.31 0.58,-0.6 0.86,-0.9 0.55,-0.57 1.08,-1.15 1.64,-1.71 l 0.87,-0.83 c 0.57,-0.55 1.15,-1.11 1.73,-1.65 l 0.88,-0.77 c 0.6,-0.54 1.2,-1.08 1.82,-1.6 0.29,-0.25 0.59,-0.47 0.87,-0.71 0.64,-0.53 1.28,-1 1.93,-1.56 l 0.84,-0.63 c 0.68,-0.51 1.35,-1 2,-1.52 0.27,-0.2 0.56,-0.39 0.84,-0.58 0.7,-0.5 1.4,-1 2.12,-1.46 0.27,-0.19 0.55,-0.36 0.83,-0.54 0.73,-0.47 1.46,-1 2.2,-1.41 l 0.82,-0.48 c 0.76,-0.46 1.52,-0.91 2.29,-1.35 l 0.8,-0.45 c 0.79,-0.44 1.58,-0.88 2.38,-1.3 l 0.76,-0.39 c 0.82,-0.42 1.64,-0.85 2.47,-1.25 l 0.74,-0.35 c 0.85,-0.41 1.69,-0.81 2.55,-1.2 l 0.7,-0.31 c 0.88,-0.39 1.75,-0.78 2.64,-1.15 l 0.66,-0.27 c 0.9,-0.38 1.81,-0.75 2.72,-1.1 l 0.64,-0.25 2.78,-1 0.61,-0.22 2.84,-1 0.58,-0.19 c 1,-0.32 1.93,-0.63 2.9,-0.93 l 0.57,-0.17 c 1,-0.3 1.95,-0.59 2.93,-0.87 l 0.53,-0.15 c 1,-0.28 2,-0.56 3,-0.82 l 0.48,-0.12 c 1,-0.27 2,-0.53 3.05,-0.77 l 0.45,-0.11 c 1,-0.24 2.05,-0.49 3.08,-0.71 l 0.43,-0.1 3.1,-0.66 0.41,-0.08 3.12,-0.61 0.36,-0.06 3.16,-0.56 0.35,-0.06 3.15,-0.5 0.31,-0.05 c 1.06,-0.16 2.12,-0.32 3.17,-0.46 h 0.27 l 3.18,-0.41 h 0.25 c 1.07,-0.13 2.12,-0.26 3.17,-0.37 h 0.21 l 3.17,-0.33 h 0.21 L 369,54 h 0.19 l 3.09,-0.24 h 0.19 l 3.05,-0.2 h 0.14 l 3,-0.17 h 0.1 c 1,-0.05 2,-0.1 3,-0.13 h 0.1 l 2.94,-0.1 h 0.09 l 2.87,-0.06 h 0.06 2.82 5.54 2.54 v 0 l 2.46,0.06 v 0 l 2.36,0.07 v 0 l 2.24,0.08 v 0 l 2.14,0.1 v 0 l 2,0.1 h 0.05 c 1.29,0.07 2.49,0.14 3.6,0.22 v 0 l 1.57,0.12 v 0 l 1.43,0.11 v 0 l 1.3,0.11 v 0 l 1.11,0.11 h 0.09 l 0.92,0.09 v 0 l 0.77,0.07 h 0.1 l 0.56,0.07 h 0.07 0.4 0.09 0.19 0.09 q -2.91,-1.52 -6.21,-2.99 z"
     id="path16"
     inkscape:connector-curvature="0"
     style="fill:#3d6582;stroke:#ffffff;stroke-width:10px;stroke-miterlimit:10" />
  <circle
     class="cls-3"
     cx="455"
     cy="233"
     r="20"
     id="circle18"
     style="fill:#62a3bc;stroke:#ffffff;stroke-width:10px;stroke-miterlimit:10" />
  <ellipse
     class="cls-1"
     cx="464"
     cy="241.5"
     rx="7"
     ry="7.5"
     id="ellipse20"
     style="fill:#ffffff" />
  <path
     class="cls-4"
     d="M 192.57,319.43 C 169.12,188.52 98,140.65 87.24,132 40.33,188.77 22.27,265.05 28,330.8 c 2.87,66.31 39.59,131 87,176.64 82.74,92.26 96.26,-25.84 77.57,-188.01 z"
     id="path22"
     inkscape:connector-curvature="0"
     style="fill:#85c287;stroke:#ffffff;stroke-width:10px;stroke-miterlimit:10" />
  <circle
     class="cls-6"
     cx="305"
     cy="305"
     r="272"
     id="circle24"
     style="fill:none;stroke:#fdfffc;stroke-width:12px;stroke-miterlimit:10" />
  <circle
     class="cls-7"
     cx="305"
     cy="305"
     r="295"
     id="circle26"
     style="fill:none;stroke:#3d6582;stroke-width:20px;stroke-miterlimit:10" />
  <path
     class="cls-8"
     d="m 1997,456.18 c -21.81,39.14 -52.61,69.3 -90.47,69.3 -41.71,0 -73.79,-36.57 -76.35,-96.25 28.87,-5.77 68,-20.53 95.6,-43 21.82,-18 36.58,-40.42 36.58,-66.73 0,-28.87 -18.61,-48.12 -48.77,-48.12 -25.67,0 -53.26,14.11 -75.71,33.36 -39.79,34.65 -58.4,84.7 -58.4,128.33 -0.044,10.99195 1.1879,21.95186 3.67,32.66 -16.17,42.14 -33,59.1 -47.29,59.1 -20.53,0 -29.52,-34 -29.52,-77 0,-46.2 10.27,-111 18.61,-155.28 -23.74,-13.47 -47.48,-20.53 -73.79,-20.53 -41.71,0 -78.92,18.61 -105.23,48.76 -27,30.16 -47.48,77 -47.48,127.69 0,6.68332 0.3795,13.36125 1.15,20 -19,42.06 -39.45,57 -55.69,57 -22.46,0 -43,-28.87 -43,-100.74 0,-21.82 1.93,-47.48 4.49,-73.79 73.79,-23.1 118.07,-118.7 118.07,-193.13 0,-40.43 -12.2,-88.55 -37.22,-105.23 -3.21,-1.93 -5.13,-2.57 -7.7,-2.57 -9.62,0 -32.72,12.19 -48.77,25 -17.32,38.5 -34.64,98.82 -39.78,117.42 -18.32,66.3 -33.48,144.36 -37.86,203.4 -24,98.61 -56.14,129.62 -79.56,129.62 -22.46,0 -43,-28.87 -43,-100.74 0,-21.82 1.93,-47.48 4.49,-73.79 73.79,-23.1 118.07,-118.7 118.07,-193.13 0,-40.43 -12.2,-88.55 -37.22,-105.23 -3.21,-1.93 -5.13,-2.57 -7.7,-2.57 -9.62,0 -32.72,12.19 -48.76,25 -17.33,38.5 -34.65,98.82 -39.79,117.42 -17.67,64.18 -32.43,139.31 -37.34,197.59 -25,89.88 -70.18,133.56 -111.47,133.56 -38.5,0 -69.3,-37.21 -71.86,-94.32 30.15,-7.06 66.73,-21.81 93.68,-43.63 22.46,-18 38.5,-42.35 38.5,-68 0,-28.24 -18.61,-46.2 -48.13,-46.2 -26.3,0 -54.54,14.11 -76.35,33.36 -39.14,34.65 -58.39,84.06 -58.39,128.33 -0.0189,9.30937 0.88217,18.59783 2.69,27.73 -20.09,46.25 -43,64.65 -61.06,64.65 -23.1,0 -41.07,-29.52 -41.07,-98.17 0,-38.5 5.78,-144 14.12,-193.39 l 81.49,-3.21 c 2.35473,-3.87913 3.67993,-8.2953 3.85,-12.83 0,-3.85 -1.29,-8.34 -2.57,-10.27 l -78.92,5.78 c 8.34,-45.56 19.89,-132.25 19.89,-145.08 0,-7.06 -3.21,-10.91 -10.91,-10.91 -10.27,0 -30.8,8.34 -42.35,16 -5.13,28.87 -9.62,96.31 -17.32,142.51 l -37.86,1.93 c -0.8341,2.9278 -1.26474,5.95574 -1.28,9 0,3.85 0.64,8.34 2.56,11.55 l 33.37,-1.92 c -9,50.69 -16,158.09 -16,195.31 0,93 44.27,118.06 78.92,118.06 21.34,0 53.88,-9.29 82.3,-65.6 17.54,41.84 56.13,65.6 95.43,65.6 45.14,0 94.6,-31.64 127.39,-108.36 4.15,84.66 45.63,108.36 77.29,108.36 40,0 71.78,-36 94.69,-98.66 6.74,76.79 46.21,98.66 76.63,98.66 30,0 55.52,-20.4 76,-57.17 11.15,36.71 36.26,57.17 63.84,57.17 35.93,0 65.45,-34.65 88.55,-107.79 h 1.28 c -1.28,54.54 20.53,108.43 64.81,108.43 23.47,0 47,-15.25 67.93,-61.92 17.424,38.59743 55.9022,63.35274 98.25,63.21 48.12,0 95,-31.44 120,-89.19 z M 1848.81,336.84 c 12.84,-25 28.24,-39.15 46.2,-39.15 17.33,0 26.31,12.84 26.31,32.73 0,49.41 -56.47,73.79 -91.11,80.2 0.681,-25.66436 7.0329,-50.86003 18.6,-73.78 z M 1435.6,188 c 5.77,-23.74 15.4,-59.67 28.87,-98.17 19.25,22.46 26.31,57.11 26.31,88.55 0,64.8 -29.52,134.1 -82.77,153.35 7.06,-50.73 18.61,-107.18 27.59,-143.73 z m -171.32,0 c 5.77,-23.74 15.4,-59.67 28.87,-98.17 19.25,22.46 26.31,57.11 26.31,88.55 0,64.8 -29.51,134.1 -82.77,153.35 7.06,-50.73 18.61,-107.18 27.59,-143.73 z m -247.67,148.84 c 12.83,-25 29.51,-39.15 47.48,-39.15 16,0 25,11.55 25,31.44 0,49.41 -55.82,74.44 -91.11,80.85 1.3,-24.38 7.72,-51.33 18.63,-73.14 z m 621.75,107.79 c -18.61,54.54 -37.22,77.64 -54.54,77.64 -21.82,0 -35.29,-37.86 -35.29,-84.06 0,-44.27 12.19,-91.11 28.87,-119.34 14.12,-13.48 32.08,-19.89 50.69,-19.89 15.4,0 31.44,4.49 44.28,13.47 -8.37,40.43 -19.89,91.12 -34.01,132.18 z"
     id="path28"
     inkscape:connector-curvature="0"
     style="fill:#3d6582"
     sodipodi:nodetypes="csccsscccsscscccsscscscccsscscscccsccsscccsscccccssccccccsscscscscsccscccccssccccsccccscccsscccsscscc" />
</svg>
